<svg width="402" height="286" viewBox="0 0 402 286" fill="none" xmlns="http://www.w3.org/2000/svg">
<g clip-path="url(#clip0_403_5)">
<path d="M80.9988 277.133V244.315H9.96819L3 226.557L54.0252 110.345H93.5865L49.08 211.272H80.9988V182.95L88.4166 162.495H119.886V211.272H134.946V238.246L119.886 244.315V277.133H80.9988Z" fill="#3E404E"/>
<g filter="url(#filter0_d_403_5)">
<path d="M278.522 165.504C297.614 209.151 277.708 260.01 234.062 279.101C190.415 298.192 139.556 278.287 120.465 234.64C101.374 190.994 121.279 140.135 164.926 121.043C208.572 101.952 259.431 121.858 278.522 165.504Z" fill="url(#paint0_linear_403_5)"/>
<path d="M165.158 174.853C168.096 181.568 165.034 189.392 158.32 192.33C151.605 195.268 143.78 192.206 140.843 185.492C137.905 178.777 140.967 170.952 147.681 168.015C154.396 165.077 162.221 168.139 165.158 174.853Z" fill="url(#paint1_linear_403_5)"/>
<path d="M246.205 139.717C247.891 141.673 247.573 144.232 245.493 145.431C243.413 146.631 240.36 146.017 238.673 144.061C236.987 142.104 237.305 139.546 239.385 138.346C241.465 137.147 244.518 137.76 246.205 139.717Z" fill="url(#paint2_linear_403_5)"/>
<path d="M276.681 201.712C279.307 202.627 280.41 206.312 279.145 209.945C277.881 213.577 274.727 215.781 272.101 214.866C269.476 213.952 268.373 210.267 269.637 206.634C270.902 203.002 274.056 200.798 276.681 201.712Z" fill="url(#paint3_linear_403_5)"/>
<path d="M196.974 116.932C197.144 118.413 194.183 119.968 190.362 120.405C186.541 120.843 183.306 119.997 183.136 118.516C182.967 117.035 185.927 115.48 189.748 115.043C193.57 114.606 196.805 115.452 196.974 116.932Z" fill="url(#paint4_linear_403_5)"/>
<path d="M229.351 249.63C231.204 259.281 223.425 268.887 211.975 271.086C200.524 273.285 189.74 267.245 187.886 257.594C186.033 247.943 193.812 238.337 205.263 236.138C216.713 233.939 227.497 239.98 229.351 249.63Z" fill="url(#paint5_linear_403_5)"/>
<path d="M170.389 117.589C170.965 118.767 167.534 121.626 162.727 123.974C157.92 126.323 153.557 127.272 152.981 126.094C152.406 124.916 155.836 122.058 160.643 119.709C165.45 117.361 169.814 116.412 170.389 117.589Z" fill="#C00C14"/>
<path d="M171.145 119.137C172.138 121.169 169.046 124.72 164.239 127.069C159.432 129.418 154.73 129.674 153.737 127.642C152.744 125.609 155.836 122.058 160.643 119.71C165.45 117.361 170.152 117.105 171.145 119.137Z" fill="#C00C14"/>
<path d="M167.638 117.833C167.805 118.176 165.212 119.787 161.845 121.432C158.479 123.077 155.614 124.132 155.446 123.789C155.279 123.447 157.872 121.836 161.239 120.191C164.606 118.546 167.47 117.49 167.638 117.833Z" fill="#400003"/>
<path d="M110.249 212.788C112.289 212.167 115.999 218.415 118.536 226.744C121.072 235.073 121.474 242.329 119.433 242.95C117.392 243.572 113.682 237.323 111.146 228.994C108.61 220.665 108.208 213.41 110.249 212.788Z" fill="url(#paint6_linear_403_5)"/>
<path d="M112.929 211.972C116.45 210.899 121.361 216.782 123.897 225.111C126.433 233.44 125.635 241.061 122.113 242.133C118.592 243.206 113.682 237.323 111.145 228.994C108.609 220.665 109.408 213.044 112.929 211.972Z" fill="url(#paint7_linear_403_5)"/>
<path d="M109.932 217.272C110.526 217.091 112.447 221.673 114.223 227.506C115.999 233.34 116.958 238.215 116.364 238.396C115.771 238.577 113.849 233.994 112.073 228.161C110.297 222.328 109.338 217.452 109.932 217.272Z" fill="#400104"/>
<path d="M183.004 283.329C183.084 282.2 190.201 281.424 198.902 281.597C207.602 281.77 214.591 282.825 214.511 283.955C214.431 285.085 207.313 285.86 198.613 285.688C189.912 285.515 182.924 284.459 183.004 283.329Z" fill="url(#paint8_linear_403_5)"/>
<path d="M183.109 281.845C183.247 279.896 190.412 278.455 199.112 278.628C207.813 278.801 214.754 280.521 214.616 282.471C214.478 284.42 207.313 285.86 198.613 285.688C189.913 285.515 182.971 283.794 183.109 281.845Z" fill="url(#paint9_linear_403_5)"/>
<path d="M187.136 284.265C187.16 283.936 192.118 283.768 198.212 283.889C204.305 284.01 209.226 284.375 209.203 284.703C209.18 285.032 204.221 285.2 198.128 285.079C192.034 284.958 187.113 284.594 187.136 284.265Z" fill="#150303"/>
<path d="M272.63 248.47C270.934 247.698 272.114 241.461 275.267 234.539C278.419 227.618 282.349 222.632 284.045 223.405C285.741 224.177 284.56 230.414 281.408 237.336C278.256 244.258 274.326 249.243 272.63 248.47Z" fill="url(#paint10_linear_403_5)"/>
<path d="M270.401 247.457C267.475 246.124 267.658 239.433 270.81 232.511C273.962 225.589 278.89 221.058 281.816 222.391C284.742 223.724 284.559 230.415 281.407 237.337C278.255 244.258 273.327 248.789 270.401 247.457Z" fill="url(#paint11_linear_403_5)"/>
<path d="M275.427 245.718C274.934 245.493 276.324 241.381 278.531 236.533C280.739 231.685 282.929 227.938 283.422 228.162C283.916 228.387 282.526 232.499 280.318 237.347C278.111 242.195 275.921 245.942 275.427 245.718Z" fill="#130406"/>
<path d="M273.089 152.407C272.129 153.061 269.188 150.417 266.519 146.501C263.849 142.586 262.463 138.881 263.422 138.227C264.382 137.573 267.323 140.217 269.993 144.133C272.662 148.049 274.048 151.753 273.089 152.407Z" fill="url(#paint12_linear_403_5)"/>
<path d="M271.829 153.266C270.173 154.394 266.667 152.135 263.998 148.22C261.329 144.304 260.507 140.215 262.162 139.087C263.818 137.958 267.324 140.217 269.993 144.133C272.662 148.048 273.484 152.137 271.829 153.266Z" fill="url(#paint13_linear_403_5)"/>
<path d="M272.526 150.026C272.247 150.216 270.505 148.147 268.635 145.405C266.766 142.663 265.477 140.286 265.756 140.095C266.035 139.905 267.777 141.974 269.646 144.716C271.516 147.458 272.805 149.836 272.526 150.026Z" fill="#3D0002"/>
<path d="M219.353 188.466C219.353 193.047 215.64 196.761 211.059 196.761C206.478 196.761 202.765 193.047 202.765 188.466C202.765 183.886 206.478 180.172 211.059 180.172C215.64 180.172 219.353 183.886 219.353 188.466Z" fill="#91080D"/>
<path d="M147.692 249.07C145.61 250.864 141.498 249.504 138.509 246.034C135.519 242.563 134.783 238.296 136.865 236.502C138.948 234.708 143.059 236.067 146.049 239.538C149.039 243.008 149.775 247.276 147.692 249.07Z" fill="#79080D"/>
<path d="M212.718 132.067C212.718 134.815 209.005 137.043 204.424 137.043C199.844 137.043 196.13 134.815 196.13 132.067C196.13 129.318 199.844 127.09 204.424 127.09C209.005 127.09 212.718 129.318 212.718 132.067Z" fill="#BD0C14"/>
<path d="M261.665 237.004C263.472 239.075 262.139 243.195 258.687 246.207C255.235 249.218 250.972 249.981 249.165 247.91C247.358 245.839 248.692 241.719 252.143 238.707C255.595 235.696 259.858 234.933 261.665 237.004Z" fill="#580508"/>
</g>
<path d="M129.384 128.357L133.251 129.86L145.709 125.35C145.709 125.35 148.274 127.493 149.791 129.001C150.927 130.132 151.812 130.604 152.583 132.009C152.891 132.569 153.423 132.904 153.228 133.512C153.063 134.023 152.653 134.174 152.154 134.371C151.529 134.618 151.101 134.458 150.435 134.371C148.872 134.167 146.998 132.653 146.354 133.083C145.709 133.512 145.642 134.535 145.28 135.875C144.918 137.216 147.494 140.906 146.354 143.823C146.039 144.627 146.054 145.374 145.28 145.756C144.678 146.053 144.205 145.944 143.561 145.756C142.364 145.406 142.155 144.396 141.413 143.393C140.03 141.523 138.836 138.023 138.836 138.023C138.836 138.023 139.666 140.74 139.91 142.534C140.08 143.784 140.434 144.533 140.124 145.756C139.968 146.375 140.015 146.911 139.48 147.26C139.122 147.493 138.834 147.475 138.406 147.475C137.978 147.475 137.721 147.438 137.332 147.26C136.629 146.937 136.466 146.404 136.043 145.756C135.447 144.843 135.376 144.19 134.969 143.178C134.068 140.937 132.821 137.379 132.821 137.379C132.821 137.379 133.24 141.341 132.821 143.823C132.692 144.585 133.044 145.341 132.391 145.756C132.1 145.942 131.878 145.971 131.532 145.971C131.186 145.971 130.986 145.904 130.673 145.756C129.853 145.368 129.8 144.629 129.384 143.823C128.739 142.573 128.568 141.768 128.31 140.386C127.91 138.242 127.777 136.986 127.881 134.801C127.945 133.45 127.991 132.679 128.31 131.364C128.604 130.152 129.384 128.357 129.384 128.357Z" fill="#C0C0C0"/>
<path d="M132.821 68.2114C132.821 68.2114 146.475 53.4974 157.739 48.0197C169.767 42.1696 191.248 40.9311 191.248 40.9311C191.248 40.9311 199.968 53.5615 204.137 62.4116C210.402 75.7137 214.877 98.499 214.877 98.499L167.834 126.209C167.834 126.209 155.056 111.583 148.502 101.077C140.975 89.011 132.821 68.2114 132.821 68.2114Z" fill="#CACACA"/>
<path d="M149.576 45.4419C138.312 50.9197 124.658 65.6336 124.658 65.6336C124.658 65.6336 132.813 86.4332 140.339 98.4989C146.893 109.005 159.671 123.631 159.671 123.631L167.834 126.209C167.834 126.209 155.056 111.583 148.502 101.077C140.975 89.0109 132.821 68.2113 132.821 68.2113C132.821 68.2113 146.475 53.4973 157.739 48.0196C169.767 42.1696 191.248 40.931 191.248 40.931C191.248 40.931 199.968 53.5614 204.137 62.4116C209.925 74.699 214.184 95.0782 214.8 98.1156L214.877 98.0693C214.877 98.0693 212.09 77.2867 206.714 65.204C202.145 54.9347 191.248 40.931 191.248 40.931L183.086 38.3533C183.086 38.3533 161.605 39.5919 149.576 45.4419Z" fill="#ACAAAA"/>
<path d="M124.658 65.6337C124.658 65.6337 132.813 86.4333 140.339 98.499C146.893 109.005 159.671 123.631 159.671 123.631L167.834 126.209C167.834 126.209 155.056 111.583 148.502 101.077C140.975 89.011 132.821 68.2114 132.821 68.2114L124.658 65.6337Z" fill="#BBB8B8"/>
<path d="M138.836 138.024C138.836 138.024 140.03 141.523 141.413 143.394C142.155 144.396 142.364 145.407 143.561 145.757C144.205 145.945 144.678 146.053 145.28 145.757C145.882 145.46 145.426 144.829 145.065 144.468C144.705 144.107 144.226 144.494 143.777 144.253C143.015 143.846 143.157 143.054 142.702 142.32C142.163 141.449 141.713 141.057 141.199 140.172C140.822 139.523 140.938 138.906 140.34 138.453C139.852 138.085 138.836 138.024 138.836 138.024Z" fill="#D6D6D6"/>
<path d="M132.82 137.379C132.82 137.379 134.067 140.938 134.968 143.179C135.375 144.19 135.446 144.843 136.043 145.756C136.465 146.404 136.629 146.937 137.331 147.26C137.72 147.438 137.978 147.475 138.405 147.475C138.833 147.475 138.644 146.961 138.621 146.615C138.575 145.962 138.793 145.855 138.406 145.327C137.827 144.538 137.512 144.685 137.05 143.823C136.482 142.764 135.92 141.468 135.398 140.386C134.99 139.542 135.386 138.931 134.754 138.238C134.392 137.841 133.642 137.467 132.82 137.379Z" fill="#D6D6D6"/>
<path d="M128.31 131.365C127.991 132.679 127.945 133.45 127.881 134.801C127.777 136.986 127.91 138.242 128.31 140.386C128.568 141.769 128.739 142.574 129.384 143.823C129.8 144.63 129.853 145.368 130.673 145.757C130.986 145.905 131.186 145.971 131.532 145.971C131.532 145.971 130.585 143.128 130.244 141.246C129.972 139.751 129.718 138.895 129.814 137.379C129.907 135.917 130.116 135.082 130.673 133.727C131.363 132.049 133.251 129.861 133.251 129.861L129.384 128.357C129.384 128.357 128.604 130.153 128.31 131.365Z" fill="#D6D6D6"/>
<path d="M145.996 60.6607C145.952 60.3464 146.221 60.0822 146.537 60.1108C148.16 60.2576 149.434 60.2243 151.295 60.0488C155.104 59.6895 157.182 58.8619 160.746 57.4712C162.46 56.8023 163.403 56.3724 165.042 55.5379C168.133 53.965 169.777 52.8806 172.56 50.8122C175.216 48.8385 176.929 47.8836 178.96 45.3426C179.112 45.1534 179.378 45.0923 179.585 45.2179C182.23 46.8201 182.282 49.581 183.515 51.6714C183.515 51.6714 178.439 53.5547 175.568 56.1823C172.458 59.0279 170.309 60.0866 166.331 61.7673C162.586 63.3496 159.839 64.0488 155.806 64.5597C152.294 65.0045 148.502 67.1374 148.502 67.1374C147.163 64.5635 146.324 63.0459 145.996 60.6607Z" fill="url(#paint14_linear_403_5)"/>
<path d="M214.233 157.141C214.405 156.149 214.233 154.564 214.233 154.564L229.269 158.43L228.195 162.082C228.195 162.082 233.823 168.141 234.639 173.037C235.069 175.615 233.844 181.414 230.128 181.414C223.47 181.414 220.834 178.402 217.025 173.896C213.626 169.875 210.437 166.504 211.87 161.437C212.391 159.595 213.906 159.028 214.233 157.141Z" fill="#C0C0C0"/>
<path d="M228.195 162.081L229.269 158.43H223.899C223.899 158.43 222.871 160.36 223.04 161.652C223.258 163.315 224.249 164.119 225.617 165.089C227.047 166.101 228.475 165.379 229.914 166.377C231.237 167.296 231.56 168.284 232.491 169.599C233.406 170.891 234.639 173.036 234.639 173.036C233.823 168.14 228.195 162.081 228.195 162.081Z" fill="#9C9C9C"/>
<path d="M214.233 157.141C213.906 159.028 212.391 159.595 211.87 161.437C210.437 166.504 213.626 169.875 217.025 173.896C220.834 178.402 223.47 181.414 230.128 181.414C230.128 181.414 225.501 180.293 223.04 178.622C220.337 176.786 219.187 175.163 217.455 172.392C216.322 170.579 215.53 169.545 215.092 167.452C214.714 165.646 214.501 164.474 215.092 162.726C215.54 161.404 216.468 160.999 217.025 159.719C217.545 158.525 217.885 156.497 217.885 156.497L214.233 154.564C214.233 154.564 214.405 156.149 214.233 157.141Z" fill="#D6D6D6"/>
<path d="M146.225 61.982C147.513 62.4116 150.325 62.6086 152.412 62.4116C156.221 62.0523 158.471 61.4395 162.035 60.0487C163.749 59.3799 164.691 58.9499 166.331 58.1155C169.422 56.5425 171.495 55.2433 174.279 53.1749C177.047 51.118 180.25 48.8788 181.325 46.7307C181.754 47.1603 182.216 48.423 182.7 50.1676C182.7 50.1676 179.557 55.4879 176.685 58.1155C173.576 60.961 171.427 62.0198 167.449 63.7004C163.704 65.2828 160.957 65.982 156.923 66.4929C153.412 66.9377 147.902 65.6337 147.902 65.6337C147.471 65.6337 146.439 63.2708 146.225 61.982Z" fill="url(#paint15_linear_403_5)"/>
<path d="M231.417 42.6496C231.417 42.6496 232.893 42.5243 233.78 42.22C234.774 41.879 235.296 41.5535 236.143 40.9312C237.099 40.2287 237.445 39.615 238.291 38.7831C240.83 36.2862 244.95 32.5538 244.95 32.5538C244.95 32.5538 245.748 32.1975 246.239 32.339C246.642 32.4553 246.833 32.6579 247.098 32.9834C247.334 33.2745 247.453 33.4748 247.528 33.8426C247.628 34.3428 247.433 34.6357 247.313 35.1314C246.768 37.3695 244.091 39.9755 244.52 40.2867L244.95 40.5016C245.379 40.5016 247.437 38.4536 249.246 37.4943C250.142 37.0195 250.627 36.6721 251.609 36.4203C252.506 36.1901 253.192 35.7052 253.972 36.2055C254.481 36.5321 254.672 36.9107 254.831 37.4943C254.963 37.9799 254.889 38.2832 254.831 38.7831C254.51 41.5531 249.224 42.8644 249.676 43.7236C249.816 43.9914 249.835 44.2328 250.105 44.3681C250.535 44.5828 252.219 44.3946 253.542 44.1533C255.291 43.8343 256.067 42.797 257.838 42.6496C258.423 42.6009 258.786 42.4607 259.342 42.6496C259.962 42.8604 260.497 43.0823 260.631 43.7236C260.739 44.243 260.449 44.5436 260.201 45.0125C259.757 45.8513 259.232 46.1482 258.483 46.7309C257.298 47.6522 256.436 47.8845 255.046 48.4494C253.028 49.2691 251.583 48.9027 249.676 49.953C248.779 50.4468 247.528 50.4327 247.528 51.4566C247.528 52.9603 251.816 53.6092 252.253 56.1824C252.38 56.9267 252.694 57.5029 252.253 58.1156C251.834 58.6972 251.242 58.643 250.535 58.76C248.781 59.0502 247.946 57.7508 246.239 57.2564C244.421 56.73 243.395 56.3858 241.513 56.1824C239.762 55.993 237.002 56.1824 237.002 56.1824L236.358 45.8717L231.417 42.6496Z" fill="#C0C0C0"/>
<path d="M257.838 42.6496C256.066 42.7969 255.29 43.8342 253.542 44.1532C253.112 44.368 253.111 44.369 252.897 44.5828L252.897 44.5828C252.683 44.7967 252.408 44.9307 252.468 45.2273C252.527 45.5239 252.827 45.5552 253.112 45.6569C253.764 45.8896 254.184 45.4746 254.831 45.2273C255.356 45.0261 255.583 44.7529 256.119 44.5828C256.606 44.4286 256.903 44.4431 257.408 44.368C258.077 44.2686 258.465 44.2911 259.127 44.1532C259.725 44.0288 260.764 44.365 260.63 43.7236C260.497 43.0822 259.962 42.8604 259.341 42.6496C258.785 42.4606 258.423 42.6009 257.838 42.6496Z" fill="#D6D6D6"/>
<path d="M249.246 37.4944C247.527 38.5684 246.453 39.4276 246.453 39.4276C246.453 39.4276 245.979 39.8241 246.238 40.2868C246.577 40.8902 247.297 40.9215 247.957 40.7165C248.472 40.4883 248.736 40.3098 249.246 40.072C249.825 39.8022 250.201 39.7537 250.75 39.4276C251.517 38.9724 251.714 38.3993 252.468 37.924C252.944 37.624 253.446 37.7485 253.757 37.2795C253.994 36.9231 254.752 36.7058 253.972 36.2055C253.192 35.7052 252.507 36.1902 251.609 36.4203C250.627 36.6721 250.106 36.9573 249.246 37.4944Z" fill="#D6D6D6"/>
<path d="M233.78 42.22C232.893 42.5243 232.213 42.153 231.417 42.6496C229.463 43.8695 234.086 46.2519 236.358 45.8717C237.621 45.6604 237.985 44.6846 239.15 44.1533C239.802 43.8558 240.289 43.9307 240.869 43.5088C241.398 43.1232 241.725 42.8379 241.943 42.22C242.288 41.2415 241.14 40.6678 241.298 39.6423C241.491 38.3988 242.484 38.0771 243.231 37.0647C243.909 36.1466 244.159 35.5237 244.95 34.7018C245.695 33.928 247.362 33.3089 247.098 32.9834C246.833 32.6579 246.642 32.4553 246.239 32.339C245.748 32.1975 244.95 32.5538 244.95 32.5538C244.95 32.5538 240.83 36.2862 238.291 38.7831C237.445 39.615 237.099 40.2288 236.143 40.9312C235.296 41.5536 234.774 41.879 233.78 42.22Z" fill="#D6D6D6"/>
<path d="M189.052 182.405C189.791 181.365 191.017 179.795 191.017 179.795L198.875 181.1L203.922 179.266L207.389 171.748C207.389 171.748 208.226 173.855 208.698 175.228C209.162 176.574 209.573 177.3 209.79 178.708C210.222 181.51 209.652 183.214 208.698 185.885C207.287 189.839 205.317 191.588 202.368 194.585C199.515 197.484 194.073 200.892 194.073 200.892C194.073 200.892 188.13 203.747 185.341 201.762C183.841 200.694 183.259 199.605 182.722 197.847C181.807 194.851 183.328 192.936 184.468 190.018C185.731 186.787 187.042 185.235 189.052 182.405Z" fill="#C0C0C0"/>
<path d="M208.698 175.228C208.225 173.855 207.388 171.748 207.388 171.748C207.388 171.748 202.778 176.242 203.922 179.266C204.531 180.876 206.341 180.87 206.929 182.488C207.827 184.957 206.227 186.611 204.996 188.932C204.014 190.785 203.178 191.67 201.774 193.228C200.184 194.993 199.467 195.764 197.907 197.31C196.452 198.752 194.073 200.892 194.073 200.892C194.073 200.892 199.515 197.484 202.368 194.585C205.316 191.588 207.286 189.839 208.698 185.885C209.652 183.214 210.222 181.51 209.79 178.708C209.573 177.3 209.162 176.574 208.698 175.228Z" fill="#9C9C9C"/>
<path d="M189.053 182.405C187.043 185.235 185.731 186.787 184.469 190.018C183.328 192.937 181.808 194.851 182.722 197.848C183.259 199.607 184.16 201.176 185.342 201.763C185.235 201.089 185.018 201.444 184.805 200.102C184.591 198.761 184.299 197.48 184.469 195.806C184.673 193.785 185.239 192.708 186.093 190.866C187.01 188.89 187.478 187.644 189.053 186.14C189.751 185.472 190.221 185.183 191.017 184.636C193.791 182.73 199.409 183.775 198.876 181.1C198.267 178.049 191.017 179.795 191.017 179.795C191.017 179.795 189.791 181.365 189.053 182.405Z" fill="#D6D6D6"/>
<path d="M146.845 64.0576C152.215 64.0576 153.615 64.1079 157.739 63.2709C161.898 62.4265 164.23 61.6854 168.049 59.834C171.546 58.1388 173.468 56.9833 176.427 54.4638C178.957 52.3088 180.938 50.1677 182.226 48.2345C183.086 49.3085 183.043 49.7989 183.945 50.3825C184.26 50.5863 184.448 50.6955 184.804 50.8121C186.344 51.316 187.098 49.6982 188.671 49.3085C190.632 48.8225 191.811 49.0304 193.826 48.8789C198.183 48.5511 200.638 48.5534 204.996 48.2345C208.859 47.9517 211.058 48.025 214.877 47.3752C221.024 46.3293 223.901 42.9614 230.128 42.6495C231.385 42.5866 232.122 42.3764 233.35 42.6495C236.077 43.2559 237.064 45.1256 238.72 47.3752C239.899 48.9767 240.766 49.9229 241.083 51.8862C241.453 54.1767 241.341 55.956 239.794 57.6859C238.059 59.6278 235.757 58.409 233.35 59.4044C230.638 60.5259 229.716 62.4235 226.906 63.2709C225.043 63.8326 223.849 63.4289 221.965 63.9153C218.587 64.7875 217.26 66.7068 214.018 67.9966C211.725 68.9086 210.428 69.4757 208.003 69.9298C206.264 70.2556 205.258 70.2495 203.492 70.3594C200.143 70.5679 199.84 69.5002 195.759 70.3594C195.759 71.4335 195.782 71.8221 196.404 72.7223C197.758 74.6847 198.804 75.5675 200.27 77.448C205.563 84.2373 206.236 89.8095 212.299 95.9213C213.046 96.6742 213.666 96.9218 214.259 97.8009C215.081 99.0188 214.596 100.144 215.36 101.399C216.611 103.455 218.299 103.782 220.422 104.916C221.996 105.758 223.1 105.786 224.624 106.715C226.444 107.826 227.213 108.816 228.732 110.313C229.989 111.553 230.54 112.397 231.793 113.643C233.553 115.393 235.063 115.861 236.572 117.831C237.896 119.559 238.519 120.689 239.15 122.772C239.666 124.475 239.889 125.506 239.794 127.283C239.683 129.377 238.87 130.423 238.291 132.438C236.992 136.957 236.669 139.617 235.069 144.038C233.471 148.451 231.471 150.496 230.128 154.993C229.487 157.138 230.415 158.988 228.839 160.578C227.419 162.01 225.915 162.044 223.899 162.081C221.905 162.118 220.739 161.69 218.958 160.793C217.722 160.169 217.002 159.766 216.058 158.752C214.921 157.529 213.357 156.651 213.158 154.993C212.514 149.623 213.488 147.776 214.662 143.393C215.243 141.226 216.605 140.265 216.703 138.023C216.782 136.223 216.52 135.134 215.736 133.512C211.655 131.149 209.292 131.149 201.559 129.646C201.129 129.646 199.84 129.646 198.981 133.727C198.552 136.52 199.315 139.259 200.27 142.964C201.154 146.392 201.402 148.38 202.418 151.771C203.782 156.323 205.119 158.679 206.714 163.156C207.489 165.33 208.325 166.455 208.648 168.74C208.882 170.402 208.923 171.382 208.648 173.037C208.154 175.997 207.449 177.841 205.64 180.34C204.7 181.638 204.271 182.611 202.848 183.347C201.276 184.161 200.106 183.74 198.337 183.777C196.657 183.811 195.691 183.875 194.041 183.562C192.659 183.3 191.765 183.282 190.604 182.488C189.522 181.748 189.233 180.966 188.456 179.91C186.032 176.616 185.123 174.301 183.515 170.459C181.456 165.537 180.805 162.564 179.649 157.356C179.167 155.188 179.055 153.939 178.575 151.771C177.633 147.518 178.059 146.585 175.997 142.749C174.801 140.524 172.795 138.093 171.808 135.768C170.857 133.526 171.272 131.831 170.197 129.646C168.809 126.824 168.909 129.646 165.686 123.202C162.797 117.422 159.242 115.039 157.524 108.81C157.226 107.731 157.111 107.112 156.879 106.017C156.597 104.681 156.5 103.92 156.235 102.58C155.5 98.8672 155.161 94.6325 154.087 93.1288C153.67 93.0849 153.432 93.1076 153.013 93.1288C149.576 93.3035 152.426 105.992 149.146 113.321C148.533 114.69 147.83 115.312 147.428 116.757C146.867 118.778 147.869 120.077 147.428 122.128C146.939 124.402 146.385 125.75 144.85 127.498C143.499 129.037 142.501 129.87 140.554 130.505C138.481 131.181 137.14 130.716 134.969 130.505C133.102 130.324 131.865 130.59 130.243 129.646C128.858 128.839 128.064 128.119 127.451 126.639C126.777 125.011 127.641 123.879 127.451 122.128C127.276 120.508 126.85 119.654 126.592 118.046C126.364 116.629 125.968 115.817 126.162 114.395C126.306 113.343 126.774 112.849 127.021 111.817C127.395 110.258 127.416 109.338 127.451 107.736C127.495 105.716 126.922 104.598 127.021 102.58C127.084 101.312 127.287 100.617 127.451 99.3582C127.899 95.9224 127.552 93.8767 128.525 90.5512C128.875 89.3542 129.061 88.669 129.599 87.5439C130.151 86.3886 130.607 85.8167 131.318 84.7514C132.183 83.4533 132.826 82.8351 133.68 81.5293C135.529 78.7039 135.761 76.662 137.547 73.7963C138.408 72.4139 138.85 71.5965 139.91 70.3594C141.734 68.2301 142.773 66.5211 145.495 65.8485C145.99 65.7261 146.407 65.9786 146.784 65.6337C147.221 65.2328 146.684 64.6286 146.845 64.0576Z" fill="url(#paint16_linear_403_5)"/>
<path d="M214.261 97.8009C213.667 96.9219 213.047 96.6743 212.3 95.9214C206.237 89.8096 205.565 84.2374 200.271 77.4481C198.805 75.5676 197.759 74.6848 196.405 72.7224C195.784 71.8222 195.76 70.3595 195.76 70.3595C195.76 70.3595 193.61 69.9 192.538 69.0706C190.14 67.2158 191.034 61.5524 190.604 61.5525C186.037 61.5529 191.278 68.6603 192.109 73.152C192.608 75.854 192.811 77.3974 193.612 80.0258C195.046 84.7277 196.302 87.2896 198.982 91.4105C202.059 96.1409 203.714 99.413 208.649 102.151C212.779 104.442 222.546 106.051 220.423 104.916C218.3 103.782 216.613 103.455 215.361 101.399C214.598 100.144 215.083 99.0189 214.261 97.8009Z" fill="url(#paint17_linear_403_5)"/>
<path d="M195.759 70.3595C199.84 69.5003 200.143 70.568 203.492 70.3595C206.841 70.151 199.851 69.5087 197.907 68.2114C196.476 67.2559 195.828 66.4907 194.685 65.2041C193.448 63.8119 190.604 61.5525 190.604 61.5525C190.604 61.5525 190.516 63.9572 190.819 65.2041C191.17 66.6486 191.018 67.7647 192.108 68.8558C193.143 69.8923 195.759 70.3595 195.759 70.3595Z" fill="url(#paint18_linear_403_5)"/>
<path d="M201.559 129.646C209.292 131.15 211.655 131.15 215.736 133.512C216.52 135.135 216.782 136.224 216.703 138.023C216.605 140.265 215.243 141.226 214.662 143.394C213.489 147.776 212.514 149.623 213.159 154.993C213.358 156.651 214.921 157.529 216.059 158.752C217.197 159.975 217.643 157.877 217.67 156.926C217.697 155.944 216.545 155.847 216.059 154.993C215.052 153.225 215.167 151.867 215.307 149.838C215.491 147.164 216.819 145.935 217.67 143.394C218.698 140.323 220.574 138.638 220.033 135.446C219.592 132.85 218.584 131.372 216.596 129.646C214.132 127.507 211.909 126.954 208.648 127.068C205.704 127.172 202.203 128.142 201.559 129.646Z" fill="#B26F34"/>
<path d="M169.111 79.5963L169.97 78.9519C169.97 78.9519 170.268 82.3557 170.185 84.5368C170.101 86.7308 170.163 88.0163 169.54 90.1218C168.72 92.8957 167.028 93.907 165.889 96.5659C165.189 98.1999 164.385 100.862 164.385 100.862C164.385 100.862 163.041 95.1926 163.741 93.5587C164.88 90.8997 166.572 89.8884 167.392 87.1145C168.015 85.009 167.953 83.7235 168.037 81.5296C169.111 79.5963 169.111 79.5963 169.111 79.5963Z" fill="#D18643"/>
<path d="M146.784 65.6337C146.407 65.9786 145.99 65.7261 145.495 65.8485C142.773 66.5212 141.734 68.2301 139.91 70.3595C138.85 71.5965 138.408 72.4139 137.547 73.7964C135.761 76.662 135.529 78.704 133.68 81.5294C132.826 82.8351 132.183 83.4533 131.318 84.7514C130.607 85.8167 130.151 86.3887 129.599 87.5439C129.061 88.669 128.875 89.3543 128.525 90.5512C127.552 93.8767 127.899 95.9224 127.451 99.3582C127.287 100.617 127.084 101.312 127.021 102.58C126.922 104.598 127.495 105.716 127.451 107.736C127.416 109.338 127.395 110.259 127.021 111.817C126.774 112.849 126.306 113.343 126.162 114.395C125.968 115.817 126.364 116.629 126.592 118.046C126.85 119.654 127.276 120.508 127.451 122.128C127.641 123.879 126.777 125.011 127.451 126.639C128.064 128.119 128.858 128.839 130.243 129.646C131.865 130.59 133.102 130.324 134.969 130.505C136.836 130.686 135.276 121.957 136.043 116.543C137.008 109.732 138.035 105.977 139.91 99.3582C141.746 92.8751 142.903 89.2527 145.495 83.033C148.424 76.0033 161.332 68.5617 154.302 65.6337H146.784Z" fill="#E5A064"/>
<path d="M194.041 183.562C195.691 183.875 198.337 183.777 198.337 183.777C202.61 182.311 195.617 177.27 194.041 173.036C192.615 169.208 191.78 167.068 190.604 163.155C189.655 159.999 189.966 157.923 188.456 154.993C187.249 152.651 185.609 151.949 184.375 149.623C182.208 145.539 182.439 142.626 182.012 138.023C181.648 134.097 182.012 131.87 182.012 127.927C182.012 124.823 182.28 123.072 182.012 119.979C181.784 117.355 182.677 115.298 180.938 113.32C179.548 111.741 178.098 97.8021 175.997 97.6856C173.586 97.5518 172.142 98.4008 170.197 99.8337C166.783 102.35 162.464 116.757 165.687 123.202C168.909 129.646 168.809 126.824 170.197 129.646C171.272 131.831 170.857 133.526 171.808 135.768C172.795 138.093 174.801 140.524 175.997 142.749C178.06 146.585 177.633 147.518 178.575 151.771C179.055 153.939 179.168 155.187 179.649 157.356L179.682 157.507C180.818 162.622 181.476 165.585 183.515 170.459C185.123 174.301 185.956 176.579 188.456 179.91C189.243 180.958 189.522 181.748 190.604 182.488C191.765 183.282 192.659 183.3 194.041 183.562Z" fill="#E5A064"/>
<path d="M171.221 64.7855L171.952 64.3339C171.952 64.3339 175.805 69.2325 177.969 72.581C182.008 78.8326 182.969 83.0747 186.562 89.5929C188.507 93.1211 189.778 94.9972 191.718 98.5284C194.564 103.711 196.903 106.352 198.592 112.018C200.109 117.107 200.311 125.508 200.311 125.508L199.58 125.959C199.58 125.959 199.378 117.559 197.861 112.47C196.172 106.803 193.833 104.162 190.987 98.9799C189.047 95.4487 187.776 93.5726 185.831 90.0444C182.238 83.5262 181.277 79.2842 177.238 73.0325C175.074 69.684 171.221 64.7855 171.221 64.7855Z" fill="url(#paint19_linear_403_5)"/>
<path d="M183.515 50.1678C183.515 50.1678 184.163 50.5771 184.589 50.7263C185.449 51.027 185.415 50.8972 185.878 50.8121C186.738 50.5974 187.117 49.8851 188.026 49.5233C188.594 49.2974 188.932 49.2187 189.53 49.0937C190.601 48.8697 191.231 48.9493 192.322 48.8789C194.333 48.7492 195.465 48.7543 197.478 48.6641C199.24 48.5851 200.228 48.551 201.989 48.4492C204.34 48.3134 205.653 48.1691 208.003 48.0196C209.429 47.929 211.655 47.8048 211.655 47.8048C212.046 48.2098 212.13 48.5569 212.299 49.0937C212.978 51.248 211.766 52.8846 210.151 54.4638C208.33 56.2446 206.452 56.1056 203.922 56.397C200.645 56.7744 198.826 55.6594 195.545 55.323C189.61 54.7147 180.293 54.4638 180.293 54.4638L182.227 52.3157L183.515 50.1678Z" fill="#E49046"/>
<path d="M146.999 65.2043C146.999 65.2043 160.223 65.9327 167.941 62.8414C175.371 59.8659 183.644 50.1679 183.644 50.1679C183.836 50.3189 183.948 50.3972 184.159 50.5245C184.159 50.5245 175.785 60.3797 168.479 63.4858C160.559 66.8528 146.783 65.6339 146.783 65.6339C146.936 65.4914 146.968 65.3945 146.999 65.2043Z" fill="url(#paint20_linear_403_5)"/>
<path d="M146.999 65.2043C146.999 65.2043 160.223 65.9327 167.941 62.8414C175.371 59.8659 183.644 50.1679 183.644 50.1679C183.836 50.3189 183.948 50.3972 184.159 50.5245C184.159 50.5245 175.785 60.3797 168.479 63.4858C160.559 66.8528 146.783 65.6339 146.783 65.6339C146.936 65.4914 146.968 65.3945 146.999 65.2043Z" fill="url(#paint21_linear_403_5)"/>
<path d="M152.369 78.9519H152.799C152.799 78.9519 154.674 83.5726 154.732 86.6849C154.779 89.2259 153.658 93.1033 153.658 93.1033C153.241 93.1173 153.411 93.1162 153.228 93.1162C153.228 93.1162 154.383 89.098 154.302 86.4701C154.209 83.44 152.369 78.9519 152.369 78.9519Z" fill="url(#paint22_linear_403_5)"/>
<path d="M119.928 24.4333C120.524 21.6212 121.217 20.0768 122.684 17.5595C124.067 15.1875 125.115 13.9808 127.049 11.9745C129.78 9.14274 131.624 7.7543 135.09 5.74517C138.435 3.80632 140.533 3.00512 144.279 1.87867C148.366 0.649738 150.787 0.105723 155.077 -0.0545813C158.494 -0.182272 160.452 -0.0333505 163.807 0.589836C165.813 0.962645 166.975 1.13729 168.861 1.87867C170.676 2.59245 171.654 3.13152 173.226 4.24153C177.237 7.07467 178.335 9.91548 180.577 14.1226C181.744 16.3115 182.259 17.6078 183.104 19.9223C183.976 22.3106 184.516 23.6598 184.942 26.1517C185.551 29.7136 185.947 31.9057 184.942 35.3883C184.127 38.2138 183.074 39.6583 181.266 42.0473C179.652 44.1802 178.573 45.2983 176.442 46.9879C173.801 49.0811 171.906 49.7442 168.861 51.284C165.118 53.1763 163.032 54.3612 158.982 55.5801C153.124 57.343 149.366 58.77 143.36 57.5133C140.222 56.8566 138.504 56.1034 135.779 54.5061C133.619 53.2394 132.555 52.3002 130.725 50.6395C126.848 47.1217 124.865 44.7357 122.684 40.1141C120.006 34.4361 118.636 30.5206 119.928 24.4333Z" fill="url(#paint23_linear_403_5)"/>
<path d="M123.762 37.3214L134.287 54.5059C134.287 54.5059 131.12 54.6627 129.347 53.8614C127.346 52.9573 126.553 51.7731 125.265 49.9949C124.011 48.2628 123.436 47.1255 122.903 45.0544C122.212 42.3737 123.762 37.3214 123.762 37.3214Z" fill="#B7B6B2"/>
<path d="M178.575 15.5842C178.575 15.5842 182.947 17.1144 184.123 17.9892C185.123 18.7337 185.58 19.3139 186.271 20.352C187.359 21.9868 187.703 23.135 187.989 25.0777C188.197 26.4885 188.197 27.3186 187.989 28.7294C187.703 30.6721 184.123 36.6352 184.123 36.6352L178.575 15.5842Z" fill="#B7B7C3"/>
<g filter="url(#filter1_f_403_5)">
<path d="M182.834 19.953L183.788 19.2779C183.788 19.2779 184.723 20.757 185.22 21.7533C185.898 23.112 186.208 23.9114 186.651 25.3538C186.865 26.0499 187.237 26.4367 187.128 27.1541C187.022 27.8555 186.174 28.7294 186.174 28.7294C186.174 28.7294 185.689 26.5089 185.22 25.1288C184.506 23.0301 182.834 19.953 182.834 19.953Z" fill="#62635E" fill-opacity="0.5"/>
</g>
<path d="M123.332 27.8701C123.89 25.058 124.538 23.5137 125.91 20.9963C127.203 18.6244 128.183 17.4176 129.991 15.4114C132.545 12.5796 134.269 11.1911 137.51 9.18201C140.637 7.24316 142.599 6.44196 146.102 5.31551C149.923 4.08658 152.187 3.54257 156.198 3.38226C159.393 3.25457 161.224 3.40349 164.36 4.02668C166.237 4.39949 167.323 4.57413 169.086 5.31551C170.784 6.02929 171.698 6.56837 173.167 7.67837C176.918 10.5115 177.944 13.3523 180.041 17.5594C181.132 19.7483 181.614 21.0446 182.404 23.3592C183.219 25.7475 183.724 27.0966 184.122 29.5885C184.692 33.1505 185.062 35.3426 184.122 38.8252C183.36 41.6506 182.376 43.0952 180.686 45.4842C179.177 47.617 178.168 48.7352 176.175 50.4247C173.706 52.5179 171.933 53.181 169.086 54.7208C165.587 56.6132 163.636 57.7981 159.849 59.0169C154.372 60.7799 150.858 62.2069 145.243 60.9502C142.308 60.2934 140.702 59.5402 138.154 57.9429C136.134 56.6762 135.14 55.737 133.428 54.0764C129.803 50.5585 127.949 48.1726 125.91 43.5509C123.405 37.8729 122.125 33.9574 123.332 27.8701Z" fill="url(#paint24_linear_403_5)"/>
<path d="M131.495 31.7366C133.428 28.5146 134.19 27.4099 136.436 25.0777C139.008 22.4069 140.78 21.1943 143.954 19.2779C147.039 17.4157 148.945 16.6428 152.332 15.4114C157.057 13.693 159.42 13.2633 163.287 13.2634C166.019 13.2634 167.85 14.964 169.516 17.1298C171.664 19.9223 172.15 20.5621 173.812 23.7888C175.139 26.3647 176.605 30.6626 176.605 30.6626C176.605 30.6626 177.613 34.3138 176.605 36.2475C174.027 41.1881 169.453 45.142 163.287 48.7063C156.852 52.4258 154.909 53.8616 145.028 53.432C140.302 52.358 133.078 45.3963 131.495 37.1068C131.163 35.3686 130.585 33.254 131.495 31.7366Z" fill="url(#paint25_linear_403_5)"/>
<path d="M140.732 21.2113C143.843 18.8922 145.972 17.801 149.539 16.2709C153.002 14.7851 155.036 13.9408 158.775 13.4783C160.11 13.3133 162.212 13.2636 162.212 13.2636C162.212 13.2636 154.222 21.6281 151.472 28.2999C148.439 35.6598 148.68 48.4917 148.68 48.4917L139.658 49.3509C139.658 49.3509 131.666 35.6336 132.999 30.0184C133.428 28.2086 134.646 26.8224 136.221 25.0779C137.77 23.3623 138.879 22.5925 140.732 21.2113Z" fill="url(#paint26_linear_403_5)"/>
<path fill-rule="evenodd" clip-rule="evenodd" d="M135.779 24.7228C133.449 27.1546 132.659 28.3065 130.654 31.6661C129.814 33.0732 130.196 34.9726 130.533 36.6506C130.575 36.8595 130.616 37.065 130.654 37.2656C132.296 45.9091 139.79 53.1681 144.692 54.2879C154.454 54.7146 156.746 53.3769 162.709 49.8979L163.632 49.3604C170.028 45.644 174.773 41.5212 177.446 36.3697C178.493 34.3534 177.446 30.5462 177.446 30.5462C177.446 30.5462 175.926 26.0648 174.55 23.3789C172.826 20.0144 172.322 19.3473 170.094 16.4356C168.366 14.1772 166.466 12.404 163.632 12.404C159.621 12.404 157.17 12.8519 152.268 14.6437C148.755 15.9277 146.778 16.7336 143.578 18.6753C140.285 20.6736 138.448 21.938 135.779 24.7228ZM136.435 25.0775C134.189 27.4097 133.428 28.5144 131.495 31.7364C130.686 33.0856 131.053 34.9068 131.378 36.5157C131.418 36.7164 131.458 36.9139 131.495 37.1066C133.078 45.3961 140.302 52.3579 145.028 53.4318C154.438 53.8411 156.649 52.5581 162.397 49.2216C162.684 49.0549 162.98 48.8831 163.286 48.7061C169.452 45.1419 174.026 41.1879 176.604 36.2474C177.613 34.3137 176.604 30.6624 176.604 30.6624C176.604 30.6624 175.138 26.3646 173.812 23.7886C172.15 20.5619 171.664 19.9222 169.515 17.1296C167.849 14.9638 166.019 13.2632 163.286 13.2632C159.42 13.2632 157.057 13.6928 152.331 15.4112C148.945 16.6426 147.038 17.4155 143.954 19.2777C140.779 21.1941 139.008 22.4068 136.435 25.0775Z" fill="url(#paint27_linear_403_5)"/>
<path d="M228.598 133.956C230.405 132.253 232.424 128.787 232.424 128.787C232.424 128.787 231.999 130.131 231.659 130.963C230.874 132.885 230.165 133.781 228.598 135.045C227.037 136.304 224.261 136.949 224.261 136.949C224.261 136.949 227.086 135.381 228.598 133.956Z" fill="#AC7341"/>
<g filter="url(#filter2_d_403_5)">
<path d="M341.744 277.133V244.315H270.714L263.745 226.557L314.771 110.345H354.332L309.825 211.272H341.744V182.95L349.162 162.495H380.631V211.272H395.691V238.246L380.631 244.315V277.133H341.744Z" fill="#3E404E"/>
</g>
</g>
<defs>
<filter id="filter0_d_403_5" x="97.9465" y="109.792" width="187.827" height="180.56" filterUnits="userSpaceOnUse" color-interpolation-filters="sRGB">
<feFlood flood-opacity="0" result="BackgroundImageFix"/>
<feColorMatrix in="SourceAlpha" type="matrix" values="0 0 0 0 0 0 0 0 0 0 0 0 0 0 0 0 0 0 127 0" result="hardAlpha"/>
<feOffset dx="-7"/>
<feGaussianBlur stdDeviation="2"/>
<feColorMatrix type="matrix" values="0 0 0 0 0 0 0 0 0 0 0 0 0 0 0 0 0 0 0.4 0"/>
<feBlend mode="normal" in2="BackgroundImageFix" result="effect1_dropShadow_403_5"/>
<feBlend mode="normal" in="SourceGraphic" in2="effect1_dropShadow_403_5" result="shape"/>
</filter>
<filter id="filter1_f_403_5" x="178.834" y="15.2779" width="12.3136" height="17.4515" filterUnits="userSpaceOnUse" color-interpolation-filters="sRGB">
<feFlood flood-opacity="0" result="BackgroundImageFix"/>
<feBlend mode="normal" in="SourceGraphic" in2="BackgroundImageFix" result="shape"/>
<feGaussianBlur stdDeviation="2" result="effect1_foregroundBlur_403_5"/>
</filter>
<filter id="filter2_d_403_5" x="252.745" y="106.345" width="142.946" height="174.787" filterUnits="userSpaceOnUse" color-interpolation-filters="sRGB">
<feFlood flood-opacity="0" result="BackgroundImageFix"/>
<feColorMatrix in="SourceAlpha" type="matrix" values="0 0 0 0 0 0 0 0 0 0 0 0 0 0 0 0 0 0 127 0" result="hardAlpha"/>
<feOffset dx="-7"/>
<feGaussianBlur stdDeviation="2"/>
<feColorMatrix type="matrix" values="0 0 0 0 0 0 0 0 0 0 0 0 0 0 0 0 0 0 0.4 0"/>
<feBlend mode="normal" in2="BackgroundImageFix" result="effect1_dropShadow_403_5"/>
<feBlend mode="normal" in="SourceGraphic" in2="effect1_dropShadow_403_5" result="shape"/>
</filter>
<linearGradient id="paint0_linear_403_5" x1="164.926" y1="121.044" x2="234.062" y2="279.101" gradientUnits="userSpaceOnUse">
<stop stop-color="#C50D15"/>
<stop offset="1" stop-color="#280001"/>
</linearGradient>
<linearGradient id="paint1_linear_403_5" x1="147.681" y1="168.014" x2="158.32" y2="192.33" gradientUnits="userSpaceOnUse">
<stop stop-color="#1F0406"/>
<stop offset="1" stop-color="#A8111A"/>
</linearGradient>
<linearGradient id="paint2_linear_403_5" x1="239.385" y1="138.346" x2="243.976" y2="146.306" gradientUnits="userSpaceOnUse">
<stop stop-color="#190306"/>
<stop offset="1" stop-color="#E0131F"/>
</linearGradient>
<linearGradient id="paint3_linear_403_5" x1="269.637" y1="206.634" x2="279.145" y2="209.945" gradientUnits="userSpaceOnUse">
<stop stop-color="#2E0508"/>
<stop offset="1" stop-color="#7D060D"/>
</linearGradient>
<linearGradient id="paint4_linear_403_5" x1="189.748" y1="115.043" x2="190.362" y2="120.405" gradientUnits="userSpaceOnUse">
<stop stop-color="#420609"/>
<stop offset="1" stop-color="#DF131E"/>
</linearGradient>
<linearGradient id="paint5_linear_403_5" x1="205.263" y1="236.138" x2="211.975" y2="271.086" gradientUnits="userSpaceOnUse">
<stop stop-color="#150305"/>
<stop offset="1" stop-color="#70090F"/>
</linearGradient>
<linearGradient id="paint6_linear_403_5" x1="119.824" y1="243.207" x2="111.53" y2="211.689" gradientUnits="userSpaceOnUse">
<stop stop-color="#6F060A"/>
<stop offset="1" stop-color="#8C080E"/>
</linearGradient>
<linearGradient id="paint7_linear_403_5" x1="122.713" y1="242.327" x2="113.909" y2="210.931" gradientUnits="userSpaceOnUse">
<stop stop-color="#6F060A"/>
<stop offset="1" stop-color="#8C080E"/>
</linearGradient>
<linearGradient id="paint8_linear_403_5" x1="216.035" y1="283.292" x2="182.944" y2="284.973" gradientUnits="userSpaceOnUse">
<stop stop-color="#2A0001"/>
<stop offset="1" stop-color="#360103"/>
</linearGradient>
<linearGradient id="paint9_linear_403_5" x1="216.176" y1="281.305" x2="182.966" y2="281.298" gradientUnits="userSpaceOnUse">
<stop stop-color="#2A0001"/>
<stop offset="1" stop-color="#360103"/>
</linearGradient>
<linearGradient id="paint10_linear_403_5" x1="272.436" y1="248.183" x2="284.047" y2="223.3" gradientUnits="userSpaceOnUse">
<stop stop-color="#380103"/>
<stop offset="1" stop-color="#470205"/>
</linearGradient>
<linearGradient id="paint11_linear_403_5" x1="270.012" y1="247.08" x2="281.526" y2="222.152" gradientUnits="userSpaceOnUse">
<stop stop-color="#380103"/>
<stop offset="1" stop-color="#470205"/>
</linearGradient>
<linearGradient id="paint12_linear_403_5" x1="262.482" y1="137.043" x2="274.094" y2="151.972" gradientUnits="userSpaceOnUse">
<stop stop-color="#92090E"/>
<stop offset="1" stop-color="#82070C"/>
</linearGradient>
<linearGradient id="paint13_linear_403_5" x1="261.157" y1="137.947" x2="272.386" y2="153.197" gradientUnits="userSpaceOnUse">
<stop stop-color="#92090E"/>
<stop offset="1" stop-color="#82070C"/>
</linearGradient>
<linearGradient id="paint14_linear_403_5" x1="174.923" y1="47.5901" x2="145.924" y2="63.4857" gradientUnits="userSpaceOnUse">
<stop stop-color="#778186"/>
<stop offset="1" stop-color="#474B4C"/>
</linearGradient>
<linearGradient id="paint15_linear_403_5" x1="175.353" y1="48.8788" x2="147.428" y2="63.9152" gradientUnits="userSpaceOnUse">
<stop stop-color="#C1C1C1"/>
<stop offset="1" stop-color="#929292"/>
</linearGradient>
<linearGradient id="paint16_linear_403_5" x1="204.351" y1="47.8048" x2="178.145" y2="188.073" gradientUnits="userSpaceOnUse">
<stop stop-color="#D4853F"/>
<stop offset="1" stop-color="#D79962"/>
</linearGradient>
<linearGradient id="paint17_linear_403_5" x1="204.352" y1="47.8048" x2="178.145" y2="188.073" gradientUnits="userSpaceOnUse">
<stop stop-color="#A25D21"/>
<stop offset="1" stop-color="#D79962"/>
</linearGradient>
<linearGradient id="paint18_linear_403_5" x1="204.352" y1="47.8049" x2="178.145" y2="188.073" gradientUnits="userSpaceOnUse">
<stop stop-color="#995316"/>
<stop offset="1" stop-color="#D79962"/>
</linearGradient>
<linearGradient id="paint19_linear_403_5" x1="183.3" y1="89.907" x2="187.167" y2="87.9737" gradientUnits="userSpaceOnUse">
<stop stop-color="#6A4222"/>
<stop offset="1" stop-color="#D58947"/>
</linearGradient>
<linearGradient id="paint20_linear_403_5" x1="161.82" y1="61.3378" x2="163.109" y2="65.4191" gradientUnits="userSpaceOnUse">
<stop stop-color="#D48845"/>
<stop offset="1" stop-color="#4E3219"/>
</linearGradient>
<linearGradient id="paint21_linear_403_5" x1="180.938" y1="52.1011" x2="183.73" y2="51.8863" gradientUnits="userSpaceOnUse">
<stop stop-color="#D48641" stop-opacity="0"/>
<stop offset="1" stop-color="#4E3219"/>
</linearGradient>
<linearGradient id="paint22_linear_403_5" x1="152.584" y1="79.5963" x2="154.019" y2="93.1592" gradientUnits="userSpaceOnUse">
<stop stop-color="#D58A49"/>
<stop offset="1" stop-color="#281709"/>
</linearGradient>
<linearGradient id="paint23_linear_403_5" x1="122.014" y1="20.9543" x2="172.923" y2="29.117" gradientUnits="userSpaceOnUse">
<stop stop-color="#9F9F9F"/>
<stop offset="1" stop-color="#787877"/>
</linearGradient>
<linearGradient id="paint24_linear_403_5" x1="122.873" y1="28.6873" x2="162.182" y2="29.7613" gradientUnits="userSpaceOnUse">
<stop stop-color="#CBCBCB"/>
<stop offset="1" stop-color="#828380"/>
</linearGradient>
<linearGradient id="paint25_linear_403_5" x1="132.354" y1="33.8847" x2="176.175" y2="34.9587" gradientUnits="userSpaceOnUse">
<stop stop-color="#1B0A5D"/>
<stop offset="0.390625" stop-color="#1B0A5D"/>
<stop offset="0.970597" stop-color="#010005"/>
</linearGradient>
<linearGradient id="paint26_linear_403_5" x1="162.427" y1="15.6264" x2="139.228" y2="32.3812" gradientUnits="userSpaceOnUse">
<stop stop-color="#FFF9FF" stop-opacity="0.36"/>
<stop offset="1" stop-color="#1B0A5D" stop-opacity="0"/>
</linearGradient>
<linearGradient id="paint27_linear_403_5" x1="130.176" y1="33.4129" x2="177.863" y2="33.4129" gradientUnits="userSpaceOnUse">
<stop stop-color="#5B5C59"/>
<stop offset="1" stop-color="#3F403E"/>
</linearGradient>
<clipPath id="clip0_403_5">
<rect width="402" height="286" fill="white"/>
</clipPath>
</defs>
</svg>
